<svg width="48" height="52" viewBox="0 0 48 52" fill="none" xmlns="http://www.w3.org/2000/svg">
<path fill-rule="evenodd" clip-rule="evenodd" d="M40.4573 33.568C40.6601 33.4515 40.8287 33.2838 40.9462 33.0816C41.0637 32.8794 41.1259 32.6499 41.1267 32.416L41.1507 24.7C41.1514 24.4662 41.2137 24.2366 41.3311 24.0344C41.4486 23.8322 41.6172 23.6645 41.82 23.548L46.0027 21.1453C46.2054 21.0289 46.4352 20.9678 46.6689 20.9682C46.9027 20.9686 47.1322 21.0305 47.3346 21.1476C47.5369 21.2647 47.7049 21.4329 47.8217 21.6354C47.9385 21.8379 48 22.0676 48 22.3013V36.3293C48 36.5639 47.9381 36.7942 47.8205 36.9972C47.703 37.2002 47.5341 37.3685 47.3307 37.4853L31.5453 46.552C31.3437 46.6678 31.1153 46.7288 30.8829 46.729C30.6504 46.7292 30.4219 46.6687 30.22 46.5533L17.832 39.468C17.6279 39.3514 17.4583 39.183 17.3403 38.9798C17.2223 38.7765 17.1601 38.5457 17.16 38.3107V31.2373C17.16 31.2293 17.1693 31.224 17.1773 31.228C17.184 31.232 17.1933 31.228 17.1933 31.2187V31.2107C17.1933 31.2053 17.196 31.2 17.2013 31.1973L27.404 25.336C27.4133 25.3307 27.4093 25.316 27.3987 25.316C27.3958 25.316 27.3931 25.3149 27.3911 25.3129C27.3891 25.3109 27.388 25.3082 27.388 25.3053L27.408 18.3707C27.4089 18.1362 27.348 17.9056 27.2314 17.7021C27.1147 17.4987 26.9465 17.3296 26.7436 17.212C26.5408 17.0943 26.3105 17.0323 26.076 17.032C25.8415 17.0318 25.6111 17.0934 25.408 17.2107L17.8253 21.58C17.623 21.6965 17.3935 21.7579 17.16 21.7579C16.9265 21.7579 16.6971 21.6965 16.4947 21.58L8.88801 17.2C8.68536 17.0833 8.45557 17.022 8.22172 17.0221C7.98787 17.0223 7.75818 17.084 7.55569 17.201C7.3532 17.3179 7.18504 17.4861 7.06809 17.6886C6.95113 17.8911 6.88948 18.1208 6.88934 18.3547V30.888C6.8895 31.1216 6.82828 31.3512 6.71182 31.5537C6.59535 31.7562 6.42773 31.9245 6.22573 32.0418C6.02373 32.1592 5.79445 32.2214 5.56085 32.2222C5.32725 32.2231 5.09752 32.1625 4.89468 32.0467L0.673345 29.6333C0.468879 29.5165 0.298991 29.3477 0.180956 29.1439C0.062921 28.9402 0.000949839 28.7088 0.00134465 28.4733L0.038678 6.56667C0.0391861 6.33313 0.101027 6.10382 0.218012 5.90168C0.334996 5.69955 0.503021 5.5317 0.705267 5.41491C0.907513 5.29813 1.13689 5.23651 1.37043 5.23624C1.60397 5.23596 1.83349 5.29703 2.03601 5.41334L16.496 13.7187C16.6981 13.8347 16.927 13.8958 17.16 13.8958C17.393 13.8958 17.622 13.8347 17.824 13.7187L32.28 5.41334C32.4828 5.29686 32.7127 5.23579 32.9466 5.23624C33.1805 5.23669 33.4101 5.29866 33.6125 5.41592C33.8148 5.53317 33.9828 5.7016 34.0995 5.90428C34.2162 6.10697 34.2775 6.33679 34.2773 6.57067V28.4827C34.2774 28.7171 34.2157 28.9474 34.0985 29.1503C33.9812 29.3533 33.8125 29.5217 33.6093 29.6387L26.0387 33.9987C25.8353 34.1159 25.6665 34.2847 25.5493 34.4881C25.4321 34.6915 25.3707 34.9222 25.3713 35.1569C25.3718 35.3916 25.4343 35.622 25.5524 35.8248C25.6705 36.0277 25.8401 36.1957 26.044 36.312L30.22 38.6893C30.4218 38.8042 30.6501 38.8644 30.8824 38.864C31.1146 38.8635 31.3427 38.8024 31.544 38.6867L40.4573 33.568V33.568ZM41.3333 13.912C41.3335 14.1478 41.3962 14.3793 41.5151 14.583C41.6339 14.7866 41.8047 14.9551 42.0099 15.0713C42.2151 15.1874 42.4474 15.2471 42.6832 15.2442C42.919 15.2413 43.1497 15.1759 43.352 15.0547L47.352 12.6547C47.5495 12.5363 47.7129 12.3689 47.8265 12.1687C47.94 11.9684 47.9998 11.7422 48 11.512V6.62134C47.9996 6.38565 47.9367 6.15429 47.8178 5.95083C47.6988 5.74736 47.5281 5.57905 47.3229 5.46306C47.1177 5.34706 46.8855 5.28752 46.6498 5.29049C46.4142 5.29347 46.1835 5.35886 45.9813 5.48L41.9813 7.88C41.7839 7.99832 41.6204 8.16576 41.5069 8.366C41.3933 8.56624 41.3335 8.79247 41.3333 9.02267V13.9133V13.912Z" fill="#007FFF"/>
</svg>
