<svg width="48" height="48" viewBox="0 0 48 48" fill="none" xmlns="http://www.w3.org/2000/svg">
<path d="M23.9568 47.9137C37.1878 47.9137 47.9137 37.1878 47.9137 23.9568C47.9137 10.7258 37.1878 0 23.9568 0C10.7258 0 0 10.7258 0 23.9568C0 37.1878 10.7258 47.9137 23.9568 47.9137Z" fill="white"/>
<path d="M13.8464 15.369C13.7316 15.3938 13.6386 15.4542 13.5588 15.5627C13.4765 15.6806 13.4473 15.8746 13.4896 16.0026C13.5253 16.1147 13.7202 16.3416 13.9338 16.496C13.7213 16.7733 13.3126 17.3317 13.115 17.6179C11.6794 19.6976 10.8377 21.6003 10.7308 22.9721C10.673 23.7137 10.8171 24.2322 11.1584 24.6353C11.4109 24.9324 11.7065 25.1013 12.1826 25.2025C12.5732 25.2856 13.1711 25.2817 13.7744 25.1896C13.3951 25.7336 12.8535 26.5679 12.5743 27.0428C12.1134 27.8315 11.6413 28.8394 11.4638 29.4162C11.1514 30.4216 11.1113 31.2474 11.3195 32.0352C11.4466 32.5191 11.6515 32.9077 11.93 33.206C12.2136 33.5097 12.5742 33.7219 13.0151 33.8415C13.7374 34.0369 14.7977 33.9813 16.1367 33.666C16.4188 33.6003 16.8519 33.4795 17.1749 33.3836C16.8869 34.391 16.919 35.3109 17.2422 35.9709C17.3468 36.1831 17.6388 36.541 17.8136 36.6727C18.8579 37.4523 21.0535 37.4231 23.9997 36.4992C24.2356 36.4256 24.9017 36.1953 25.2335 36.0747C25.4602 36.3776 25.6716 36.4968 26.1616 36.5557C26.4804 36.5904 26.742 36.5392 26.9898 36.3966C27.103 36.3309 27.1697 36.2664 27.2077 36.2062C27.2694 36.1082 27.2809 36.0072 27.2381 35.8866C27.1971 35.7735 27.138 35.7062 27.0319 35.6586C26.971 35.6312 26.8816 35.6115 26.7368 35.6006C26.6236 35.593 26.5838 35.5886 26.5236 35.5458L26.5423 35.5301C27.0581 35.312 28.1717 34.7556 28.8589 34.3727C31.3723 32.9706 34.0579 30.9945 35.8464 29.2302C37.4671 27.6332 39.0377 25.6401 39.3622 24.7864C39.4605 24.5304 39.4875 24.2644 39.4459 24.0574C39.4109 23.8956 39.3915 23.8516 39.2354 23.6656C39.0704 23.4689 39.0358 23.4504 38.8836 23.3901C38.3768 23.1908 37.5939 23.4104 36.0513 24.3527C34.0778 25.5576 31.1491 27.7948 29.0855 29.6767C27.0529 31.5285 25.7177 33.1468 25.2224 34.3341C25.1629 34.4773 25.1646 34.5441 25.1336 34.5609C25.1018 34.5787 24.8272 34.6857 24.5253 34.8044C22.8616 35.4501 21.412 35.8205 20.3291 35.868C20.0305 35.8816 19.5536 35.8494 19.318 35.7986C19.1205 35.7565 18.8778 35.6607 18.7859 35.5734C18.6713 35.4669 18.6265 35.2882 18.6187 35.0632C18.6088 34.7795 18.6659 34.4253 18.7858 34.0135C18.8676 33.7353 19.1553 33.0161 19.2988 32.7365L19.6356 32.555C21.4505 31.8685 23.5044 30.8747 25.4281 29.7526C28.0263 28.2366 31.0169 26.1346 33.6947 23.9368C35.2902 22.6271 36.1481 21.8012 36.9614 20.7962C37.5964 20.0118 38.1107 19.1281 38.2278 18.6357C38.3126 18.2858 38.3013 17.9723 38.2086 17.7081C38.1109 17.4296 37.9236 17.2014 37.6487 17.0403C36.9329 16.6208 35.6357 16.7861 33.8826 17.5767C32.2247 18.3243 30.1521 19.6127 27.8108 21.3789C26.4117 22.4315 24.453 24.0607 23.4179 25.0304C20.7764 27.5081 18.9668 29.6629 17.9633 31.518L17.8952 31.6447C17.0074 31.9786 15.6364 32.3661 14.9497 32.4829C14.3772 32.5787 13.8248 32.6043 13.5002 32.5404C13.2993 32.5013 13.1464 32.4374 13.0342 32.322C12.9177 32.2023 12.8469 32.0325 12.7951 31.8062C12.716 31.4518 12.7395 30.869 12.8452 30.4377C13.1718 29.1077 14.2489 27.1979 15.893 25.0069L16.2497 24.5329L16.6179 24.3905C19.054 23.4551 22.0784 21.7724 24.7607 19.8575C26.2475 18.7953 27.8459 17.4768 28.9322 16.4148C29.7952 15.5713 30.4851 14.7939 31.0181 14.0671C31.4876 13.4239 31.7829 12.8807 31.9159 12.4194C32.0641 11.9051 32.0177 11.4832 31.8049 11.1266C31.6422 10.854 31.3953 10.6708 31.0823 10.5854C30.7961 10.5073 30.4503 10.5128 30.0629 10.6164C28.9387 10.9209 27.263 11.9267 24.868 13.7524C24.2723 14.2088 22.3081 15.8569 21.7216 16.3925C19.2747 18.6363 17.1069 20.9291 15.2707 23.2121L14.9237 23.6444L14.729 23.7022C14.1637 23.8689 13.5147 23.992 13.0551 24.0197C12.7862 24.0358 12.4302 23.9984 12.2753 23.9279C12.1934 23.8917 12.1804 23.8819 12.1327 23.8169C12.0487 23.7011 12.029 23.5901 12.0222 23.3684C11.9876 22.4001 12.6583 20.7621 13.7716 19.0255C14.196 18.3642 14.6847 17.6861 15.205 17.0356L15.4567 16.7208C16.2548 16.4733 17.0468 15.9706 18.2394 14.9699C19.6091 13.8177 20.9482 12.3673 21.3202 11.8678C21.7547 11.2844 21.921 10.7044 21.8485 10.4758C21.7994 10.3296 21.7038 10.2082 21.5847 10.126C21.4599 10.04 21.311 9.99804 21.1684 10.013C20.9581 10.0344 20.4761 10.292 19.8356 10.7577C19.3822 11.0859 18.1239 12.1241 17.573 12.6241C16.5684 13.5337 15.9054 14.2001 15.0771 15.1297L14.8156 15.4223C14.5904 15.4693 14.3802 15.4507 14.1977 15.3966C14.0516 15.3543 13.9387 15.3491 13.8464 15.369V15.369ZM23.8522 16.6059C24.5492 16.001 24.843 15.7573 25.8002 14.9858C26.9562 14.0557 28.2281 13.1732 29.1604 12.6533C29.6174 12.3979 30.0451 12.196 30.3784 12.1293C30.3015 12.2904 30.1833 12.493 30.0557 12.6858C29.4349 13.6165 28.49 14.6752 27.0728 16.0296C26.6451 16.4399 24.5101 18.2284 23.9775 18.6267C22.182 19.9644 20.5261 21.0306 18.8237 21.9409C18.6068 22.0565 18.3475 22.1902 18.0975 22.3164C19.8628 20.3197 21.8571 18.3405 23.8522 16.6059V16.6059ZM32.7701 19.9722C34.569 18.8853 36.105 18.2493 36.8335 18.215C36.8168 18.2763 36.791 18.3519 36.7622 18.4187C36.478 19.0907 35.6795 20.0695 34.5402 21.1602C34.0712 21.6081 32.2394 23.1361 31.3859 23.7922C27.2986 26.9249 23.9437 29.035 20.6816 30.5139C21.2532 29.7407 22.0563 28.7896 22.816 27.9925C24.2431 26.4942 25.9931 24.9084 27.7423 23.5295C29.6876 21.9946 31.2426 20.8958 32.7701 19.9722ZM33.8557 27.8391C35.1913 26.7942 36.385 25.9571 37.2665 25.4422C37.1827 25.555 37.0965 25.6682 37.0152 25.7712C35.6088 27.5537 33.9276 29.1521 31.8286 30.6964C30.5968 31.6021 29.3207 32.4289 28.0802 33.1224C28.7946 32.3006 29.6993 31.4011 30.931 30.2847C31.2517 29.9926 33.4306 28.1701 33.8557 27.8391V27.8391Z" fill="#1B1A22"/>
<path d="M24.021 31.8417C28.3237 31.8417 31.8118 28.347 31.8118 24.036C31.8118 19.725 28.3237 16.2302 24.021 16.2302C19.7183 16.2302 16.2302 19.725 16.2302 24.036C16.2302 28.347 19.7183 31.8417 24.021 31.8417Z" fill="url(#paint0_radial_225_2)"/>
<path fill-rule="evenodd" clip-rule="evenodd" d="M11.1584 24.643C10.8171 24.2399 10.673 23.7214 10.7308 22.9798L12.0222 23.3761C12.029 23.5978 12.0487 23.7088 12.1327 23.8246C12.1804 23.8895 12.1934 23.8994 12.2753 23.9356C12.4302 24.006 12.7862 24.0434 13.0551 24.0274C13.5147 23.9996 14.729 23.7099 14.729 23.7099L18.0975 22.3241C18.0975 22.3241 18.6068 22.0642 18.8237 21.9486C20.5261 21.0383 22.182 19.9721 23.9775 18.6344C24.5101 18.2361 26.6451 16.4476 27.0728 16.0372C28.49 14.6829 29.435 13.6241 30.0557 12.6934C30.1833 12.5007 30.2597 12.3008 30.3784 12.1369L31.0823 10.5931C31.3896 10.6725 31.6422 10.8617 31.8049 11.1342C32.0177 11.4909 32.0641 11.9128 31.9159 12.4271C31.7829 12.8884 31.4876 13.4316 31.0182 14.0747C30.4851 14.8016 29.7952 15.579 28.9322 16.4225C27.8459 17.4845 26.2475 18.8029 24.7607 19.8651C22.0784 21.7801 19.054 23.4628 16.6179 24.3982L16.2497 24.5406L14.9525 24.9324L13.7744 25.1973C13.1711 25.2894 12.5732 25.2933 12.1826 25.2102C11.7065 25.1089 11.4109 24.94 11.1584 24.643V24.643Z" fill="#1B1A22"/>
<path fill-rule="evenodd" clip-rule="evenodd" d="M11.93 33.2137C11.6515 32.9153 11.4466 32.5268 11.3195 32.0428L12.7951 31.8138C12.8469 32.0402 12.9177 32.2099 13.0342 32.3297C13.1464 32.4451 13.2993 32.509 13.5002 32.548C13.8248 32.612 14.3772 32.5864 14.9497 32.4906C15.6364 32.3738 17.0074 31.9863 17.8952 31.6523L20.6816 30.5215C23.9438 29.0426 27.2986 26.9325 31.3859 23.7999C32.2394 23.1438 34.0712 21.6157 34.5402 21.1679C35.6794 20.0772 36.478 19.0983 36.7622 18.4264C36.791 18.3596 36.8168 18.284 36.8335 18.2226L37.6487 17.0479C37.9236 17.2091 38.1109 17.4373 38.2086 17.7158C38.3013 17.98 38.3126 18.2935 38.2278 18.6433C38.1107 19.1358 37.5964 20.0194 36.9614 20.8039C36.1481 21.8089 35.2902 22.6347 33.6947 23.9445C31.0168 26.1423 28.0263 28.2443 25.4281 29.7603C23.5044 30.8824 21.4505 31.8762 19.6356 32.5627L19.2988 32.7442L17.1749 33.3913C16.8519 33.4871 16.4188 33.6079 16.1367 33.6737C14.7977 33.989 13.7374 34.0445 13.015 33.8492C12.5742 33.7296 12.2136 33.5174 11.93 33.2137V33.2137Z" fill="#1B1A22"/>
<path fill-rule="evenodd" clip-rule="evenodd" d="M23.9997 36.5069C21.0535 37.4308 18.8579 37.46 17.8136 36.6804L18.7859 35.5811C18.8778 35.6684 19.1205 35.7642 19.318 35.8062C19.5536 35.8571 20.0305 35.8893 20.3291 35.8757C21.412 35.8282 22.8616 35.4578 24.5253 34.8121C24.8272 34.6933 25.1018 34.5863 25.1336 34.5686L28.0802 33.13C29.3207 32.4366 30.5968 31.6098 31.8286 30.7041C33.9276 29.1598 35.6088 27.5614 37.0152 25.7789C37.0965 25.6759 37.1827 25.5627 37.2664 25.4499L38.8836 23.3978C39.0359 23.4581 39.0704 23.4766 39.2354 23.6733C39.3915 23.8593 39.4109 23.9033 39.446 24.0651C39.4875 24.2721 39.4605 24.5381 39.3622 24.794C39.0378 25.6478 37.4671 27.6408 35.8464 29.2378C34.0579 31.0022 31.3723 32.9783 28.8589 34.3803C28.1717 34.7633 27.0581 35.3197 26.5423 35.5378L26.5236 35.5535L25.2335 36.0824C24.9017 36.203 24.2356 36.4333 23.9997 36.5069V36.5069Z" fill="#1B1A22"/>
<defs>
<radialGradient id="paint0_radial_225_2" cx="0" cy="0" r="1" gradientUnits="userSpaceOnUse" gradientTransform="translate(-4.82024 29.6985) rotate(54.6028) scale(9.96182 9.98729)">
<stop stop-color="white" stop-opacity="0.904382"/>
<stop offset="1" stop-color="#FF6D6D"/>
</radialGradient>
</defs>
</svg>
