<svg width="368" height="300" viewBox="0 0 368 300" fill="none" xmlns="http://www.w3.org/2000/svg">
<rect width="368" height="300" fill="black"/>
<path d="M151.343 150.875C151.813 150.875 152.193 150.483 152.193 150C152.193 149.517 151.813 149.125 151.343 149.125C150.874 149.125 150.494 149.517 150.494 150C150.494 150.483 150.874 150.875 151.343 150.875Z" fill="#2759E2"/>
<path d="M156.133 150.875C156.602 150.875 156.983 150.483 156.983 150C156.983 149.517 156.602 149.125 156.133 149.125C155.664 149.125 155.283 149.517 155.283 150C155.283 150.483 155.664 150.875 156.133 150.875Z" fill="#2759E2"/>
<path d="M158.502 150.875C158.971 150.875 159.352 150.483 159.352 150C159.352 149.517 158.971 149.125 158.502 149.125C158.033 149.125 157.652 149.517 157.652 150C157.652 150.483 158.033 150.875 158.502 150.875Z" fill="#2759E2"/>
<path d="M156.545 144.619C157.014 144.619 157.395 144.228 157.395 143.745C157.395 143.261 157.014 142.87 156.545 142.87C156.076 142.87 155.695 143.261 155.695 143.745C155.695 144.228 156.076 144.619 156.545 144.619Z" fill="#2759E2"/>
<path d="M153.609 145.945C154.079 145.945 154.459 145.553 154.459 145.07C154.459 144.587 154.079 144.195 153.609 144.195C153.14 144.195 152.76 144.587 152.76 145.07C152.76 145.553 153.14 145.945 153.609 145.945Z" fill="#2759E2"/>
<path d="M148.15 145.202C148.62 145.202 149 144.811 149 144.328C149 143.845 148.62 143.453 148.15 143.453C147.681 143.453 147.3 143.845 147.3 144.328C147.3 144.811 147.681 145.202 148.15 145.202Z" fill="#2759E2"/>
<path d="M151.343 140.749C151.813 140.749 152.193 140.358 152.193 139.875C152.193 139.392 151.813 139 151.343 139C150.874 139 150.494 139.392 150.494 139.875C150.494 140.358 150.874 140.749 151.343 140.749Z" fill="#2759E2"/>
<path d="M145.009 140.749C145.478 140.749 145.858 140.358 145.858 139.875C145.858 139.392 145.478 139 145.009 139C144.539 139 144.159 139.392 144.159 139.875C144.159 140.358 144.539 140.749 145.009 140.749Z" fill="#2759E2"/>
<path d="M142.742 145.945C143.212 145.945 143.592 145.553 143.592 145.07C143.592 144.587 143.212 144.195 142.742 144.195C142.273 144.195 141.893 144.587 141.893 145.07C141.893 145.553 142.273 145.945 142.742 145.945Z" fill="#2759E2"/>
<path d="M139.807 144.619C140.276 144.619 140.657 144.228 140.657 143.745C140.657 143.261 140.276 142.87 139.807 142.87C139.338 142.87 138.957 143.261 138.957 143.745C138.957 144.228 139.338 144.619 139.807 144.619Z" fill="#2759E2"/>
<path d="M140.27 150.875C140.74 150.875 141.12 150.483 141.12 150C141.12 149.517 140.74 149.125 140.27 149.125C139.801 149.125 139.421 149.517 139.421 150C139.421 150.483 139.801 150.875 140.27 150.875Z" fill="#2759E2"/>
<path d="M137.85 150.875C138.319 150.875 138.7 150.483 138.7 150C138.7 149.517 138.319 149.125 137.85 149.125C137.38 149.125 137 149.517 137 150C137 150.483 137.38 150.875 137.85 150.875Z" fill="#2759E2"/>
<path d="M145.009 150.875C145.478 150.875 145.858 150.483 145.858 150C145.858 149.517 145.478 149.125 145.009 149.125C144.539 149.125 144.159 149.517 144.159 150C144.159 150.483 144.539 150.875 145.009 150.875Z" fill="#2759E2"/>
<path d="M142.742 155.858C143.212 155.858 143.592 155.466 143.592 154.983C143.592 154.5 143.212 154.108 142.742 154.108C142.273 154.108 141.893 154.5 141.893 154.983C141.893 155.466 142.273 155.858 142.742 155.858Z" fill="#2759E2"/>
<path d="M139.807 157.13C140.276 157.13 140.657 156.739 140.657 156.255C140.657 155.772 140.276 155.381 139.807 155.381C139.338 155.381 138.957 155.772 138.957 156.255C138.957 156.739 139.338 157.13 139.807 157.13Z" fill="#2759E2"/>
<path d="M148.15 156.494C148.62 156.494 149 156.102 149 155.619C149 155.136 148.62 154.745 148.15 154.745C147.681 154.745 147.3 155.136 147.3 155.619C147.3 156.102 147.681 156.494 148.15 156.494Z" fill="#2759E2"/>
<path d="M145.009 161C145.478 161 145.858 160.608 145.858 160.125C145.858 159.642 145.478 159.251 145.009 159.251C144.539 159.251 144.159 159.642 144.159 160.125C144.159 160.608 144.539 161 145.009 161Z" fill="#2759E2"/>
<path d="M151.343 161C151.813 161 152.193 160.608 152.193 160.125C152.193 159.642 151.813 159.251 151.343 159.251C150.874 159.251 150.494 159.642 150.494 160.125C150.494 160.608 150.874 161 151.343 161Z" fill="#2759E2"/>
<path d="M153.609 155.858C154.079 155.858 154.459 155.466 154.459 154.983C154.459 154.5 154.079 154.108 153.609 154.108C153.14 154.108 152.76 154.5 152.76 154.983C152.76 155.466 153.14 155.858 153.609 155.858Z" fill="#2759E2"/>
<path d="M159.764 160.364C160.447 160.364 161 159.794 161 159.092C161 158.389 160.447 157.819 159.764 157.819C159.081 157.819 158.528 158.389 158.528 159.092C158.528 159.794 159.081 160.364 159.764 160.364Z" fill="#2759E2"/>
<path d="M150.957 159.887H145.704V160.364H150.957V159.887Z" fill="#2759E2"/>
<path d="M148.245 155.351L143.031 154.692L142.974 155.165L148.188 155.824L148.245 155.351Z" fill="#2759E2"/>
<path d="M145.139 159.857L143.002 154.917L142.578 155.112L144.715 160.051L145.139 159.857Z" fill="#2759E2"/>
<path d="M140.124 156.408L142.571 155.286L142.382 154.851L139.936 155.972L140.124 156.408Z" fill="#2759E2"/>
<path d="M153.442 154.692L148.228 155.351L148.284 155.824L153.498 155.165L153.442 154.692Z" fill="#2759E2"/>
<path d="M147.833 155.73L144.745 160.105L145.12 160.385L148.208 156.011L147.833 155.73Z" fill="#2759E2"/>
<path d="M151.71 160.211L148.622 155.836L148.247 156.117L151.335 160.491L151.71 160.211Z" fill="#2759E2"/>
<path d="M151.491 160.36L153.628 155.42L153.204 155.226L151.068 160.166L151.491 160.36Z" fill="#2759E2"/>
<path d="M156.779 156.179L156.413 150.785L155.95 150.818L156.317 156.212L156.779 156.179Z" fill="#2759E2"/>
<path d="M156.762 156.125L153.375 154.572L153.186 155.008L156.574 156.56L156.762 156.125Z" fill="#2759E2"/>
<path d="M144.983 150.477L147.609 155.16L148.011 154.921L145.384 150.239L144.983 150.477Z" fill="#2759E2"/>
<path d="M140.166 150.371L142.633 155.145L143.042 154.921L140.576 150.147L140.166 150.371Z" fill="#2759E2"/>
<path d="M139.96 150.41L139.593 155.804L140.056 155.837L140.422 150.443L139.96 150.41Z" fill="#2759E2"/>
<path d="M144.504 150.589L142.202 155.449L142.618 155.658L144.921 150.798L144.504 150.589Z" fill="#2759E2"/>
<path d="M153.76 155.145L156.226 150.371L155.817 150.147L153.351 154.921L153.76 155.145Z" fill="#2759E2"/>
<path d="M153.843 154.996L151.623 150.095L151.202 150.297L153.423 155.197L153.843 154.996Z" fill="#2759E2"/>
<path d="M150.957 150.239L148.33 154.921L148.732 155.16L151.358 150.477L150.957 150.239Z" fill="#2759E2"/>
<path d="M144.566 159.507L140.316 156.329L140.043 156.715L144.293 159.893L144.566 159.507Z" fill="#2759E2"/>
<path d="M139.942 155.811L138.001 149.66L137.56 149.808L139.501 155.959L139.942 155.811Z" fill="#2759E2"/>
<path d="M158.344 149.729L156.349 156.049L156.79 156.196L158.784 149.876L158.344 149.729Z" fill="#2759E2"/>
<path d="M156.369 156.101L151.494 159.747L151.767 160.133L156.642 156.487L156.369 156.101Z" fill="#2759E2"/>
<path d="M156.26 156.344L159.253 159.022L159.557 158.662L156.564 155.984L156.26 156.344Z" fill="#2759E2"/>
<path d="M157.91 149.761H138.391V150.239H157.91V149.761Z" fill="#2759E2"/>
<path d="M145.343 140.113H150.597V139.636H145.343V140.113Z" fill="#2759E2"/>
<path d="M148.056 144.649L153.27 145.308L153.326 144.835L148.112 144.176L148.056 144.649Z" fill="#2759E2"/>
<path d="M151.162 140.143L153.299 145.083L153.722 144.888L151.585 139.949L151.162 140.143Z" fill="#2759E2"/>
<path d="M156.176 143.592L153.73 144.714L153.918 145.149L156.365 144.028L156.176 143.592Z" fill="#2759E2"/>
<path d="M142.859 145.308L148.073 144.649L148.017 144.176L142.802 144.835L142.859 145.308Z" fill="#2759E2"/>
<path d="M148.468 144.27L151.555 139.895L151.18 139.615L148.093 143.989L148.468 144.27Z" fill="#2759E2"/>
<path d="M144.59 139.789L147.678 144.164L148.053 143.883L144.965 139.509L144.59 139.789Z" fill="#2759E2"/>
<path d="M144.809 139.64L142.673 144.58L143.096 144.774L145.233 139.834L144.809 139.64Z" fill="#2759E2"/>
<path d="M139.521 143.821L139.888 149.215L140.35 149.182L139.984 143.788L139.521 143.821Z" fill="#2759E2"/>
<path d="M139.538 143.875L142.926 145.428L143.114 144.992L139.727 143.44L139.538 143.875Z" fill="#2759E2"/>
<path d="M151.318 149.523L148.691 144.84L148.289 145.079L150.916 149.761L151.318 149.523Z" fill="#2759E2"/>
<path d="M156.134 149.629L153.668 144.855L153.259 145.079L155.725 149.853L156.134 149.629Z" fill="#2759E2"/>
<path d="M156.341 149.59L156.707 144.196L156.245 144.163L155.878 149.557L156.341 149.59Z" fill="#2759E2"/>
<path d="M151.796 149.411L154.099 144.551L153.682 144.342L151.379 149.202L151.796 149.411Z" fill="#2759E2"/>
<path d="M142.54 144.855L140.074 149.629L140.483 149.853L142.949 145.079L142.54 144.855Z" fill="#2759E2"/>
<path d="M142.458 145.004L144.678 149.905L145.098 149.703L142.878 144.803L142.458 145.004Z" fill="#2759E2"/>
<path d="M145.343 149.761L147.97 145.079L147.569 144.84L144.942 149.523L145.343 149.761Z" fill="#2759E2"/>
<path d="M151.734 140.493L155.984 143.671L156.257 143.285L152.007 140.107L151.734 140.493Z" fill="#2759E2"/>
<path d="M156.358 144.189L158.3 150.34L158.741 150.192L156.799 144.041L156.358 144.189Z" fill="#2759E2"/>
<path d="M137.957 150.271L139.952 143.951L139.511 143.804L137.516 150.124L137.957 150.271Z" fill="#2759E2"/>
<path d="M139.931 143.899L144.806 140.253L144.534 139.867L139.659 143.513L139.931 143.899Z" fill="#2759E2"/>
<path d="M177.397 161V139.182H185.387C186.935 139.182 188.217 139.437 189.233 139.949C190.249 140.453 191.009 141.138 191.513 142.005C192.017 142.864 192.269 143.834 192.269 144.913C192.269 145.822 192.102 146.589 191.768 147.214C191.435 147.832 190.987 148.33 190.426 148.706C189.872 149.075 189.261 149.345 188.594 149.516V149.729C189.318 149.764 190.025 149.999 190.714 150.432C191.41 150.858 191.985 151.465 192.44 152.254C192.894 153.042 193.121 154.001 193.121 155.13C193.121 156.245 192.859 157.246 192.333 158.134C191.815 159.015 191.012 159.714 189.925 160.233C188.839 160.744 187.45 161 185.76 161H177.397ZM180.689 158.177H185.44C187.017 158.177 188.146 157.871 188.828 157.261C189.51 156.65 189.851 155.886 189.851 154.97C189.851 154.281 189.677 153.649 189.329 153.074C188.981 152.499 188.484 152.04 187.837 151.7C187.198 151.359 186.438 151.188 185.558 151.188H180.689V158.177ZM180.689 148.621H185.099C185.838 148.621 186.502 148.479 187.092 148.195C187.688 147.911 188.161 147.513 188.509 147.001C188.864 146.483 189.041 145.872 189.041 145.169C189.041 144.267 188.725 143.511 188.093 142.9C187.461 142.289 186.491 141.984 185.185 141.984H180.689V148.621ZM197.026 161V139.182H200.318V158.166H210.204V161H197.026ZM213.96 161V139.182H221.737C223.434 139.182 224.84 139.491 225.955 140.109C227.07 140.727 227.905 141.572 228.459 142.644C229.013 143.71 229.29 144.91 229.29 146.245C229.29 147.587 229.009 148.795 228.448 149.867C227.894 150.933 227.056 151.778 225.934 152.403C224.819 153.021 223.416 153.33 221.726 153.33H216.378V150.538H221.428C222.5 150.538 223.37 150.354 224.038 149.984C224.705 149.608 225.195 149.097 225.508 148.45C225.82 147.804 225.977 147.069 225.977 146.245C225.977 145.421 225.82 144.69 225.508 144.05C225.195 143.411 224.702 142.911 224.027 142.548C223.359 142.186 222.479 142.005 221.385 142.005H217.251V161H213.96Z" fill="white"/>
</svg>
