<svg width="368" height="300" viewBox="0 0 368 300" fill="none" xmlns="http://www.w3.org/2000/svg">
<rect width="368" height="300" fill="#007BFF"/>
<path d="M40.1786 143.179C39.852 143.503 39.3007 144.663 39.1862 146.562H41.1744C41.0607 144.663 40.5094 143.503 40.1786 143.179ZM44.1821 146.562C43.9595 145.22 43.0956 144.108 41.9238 143.538C42.2482 144.354 42.4603 145.402 42.5239 146.562H44.1821ZM44.1821 147.938H42.5226C42.459 149.098 42.2469 150.145 41.9238 150.962C43.0964 150.391 43.9574 149.282 44.1821 147.938ZM41.171 147.938H39.1819C39.3007 149.841 39.852 151.001 40.1786 151.323C40.5094 151.001 41.0607 149.841 41.171 147.938ZM38.4355 143.537C37.265 144.109 36.3998 145.222 36.175 146.562H37.8345C37.9011 145.402 38.1132 144.354 38.4355 143.537ZM49 153.438V141.062C49 139.923 48.0882 139 46.9643 139H34.0714C31.8228 139 30 140.847 30 143.125V156.875C30 159.153 31.8228 161 34.0714 161H47.6429C48.3923 161 49 160.384 49 159.625C49 159.121 48.7198 158.7 48.3214 158.461V154.965C48.7371 154.589 49 154.048 49 153.438ZM40.1786 141.75C43.1791 141.75 45.6071 144.21 45.6071 147.25C45.6071 150.29 43.1791 152.75 40.1786 152.75C37.178 152.75 34.75 150.29 34.75 147.25C34.75 144.21 37.1801 141.75 40.1786 141.75ZM46.2857 158.25H34.0714C33.322 158.25 32.7143 157.634 32.7143 156.875C32.7143 156.116 33.322 155.5 34.0714 155.5H46.2857V158.25ZM38.4355 150.962C38.1132 150.146 37.9011 149.098 37.8375 147.938H36.175C36.3998 149.282 37.265 150.391 38.4355 150.962Z" fill="white"/>
<path d="M83.5185 146.277H80.1946C80.0668 145.567 79.8288 144.942 79.4808 144.402C79.1328 143.862 78.7067 143.404 78.2024 143.028C77.6982 142.651 77.1335 142.367 76.5085 142.175C75.8906 141.984 75.2337 141.888 74.5376 141.888C73.2805 141.888 72.1548 142.204 71.1605 142.836C70.1733 143.468 69.392 144.395 68.8168 145.616C68.2486 146.838 67.9645 148.33 67.9645 150.091C67.9645 151.866 68.2486 153.365 68.8168 154.587C69.392 155.808 70.1768 156.732 71.1712 157.357C72.1655 157.982 73.2841 158.294 74.527 158.294C75.2159 158.294 75.8693 158.202 76.4872 158.017C77.1122 157.825 77.6768 157.545 78.1811 157.175C78.6854 156.806 79.1115 156.355 79.4595 155.822C79.8146 155.283 80.0597 154.665 80.1946 153.969L83.5185 153.979C83.3409 155.052 82.9964 156.039 82.4851 156.941C81.9808 157.836 81.331 158.61 80.5355 159.263C79.7472 159.91 78.8452 160.411 77.8295 160.766C76.8139 161.121 75.706 161.298 74.5057 161.298C72.6165 161.298 70.9332 160.851 69.456 159.956C67.9787 159.054 66.8139 157.765 65.9616 156.089C65.1165 154.413 64.6939 152.413 64.6939 150.091C64.6939 147.761 65.12 145.762 65.9723 144.093C66.8246 142.417 67.9893 141.131 69.4666 140.237C70.9439 139.335 72.6236 138.884 74.5057 138.884C75.6634 138.884 76.7429 139.05 77.7443 139.384C78.7528 139.711 79.6584 140.194 80.4609 140.833C81.2635 141.465 81.9276 142.239 82.4531 143.156C82.9787 144.065 83.3338 145.105 83.5185 146.277ZM94.0946 161.33C92.5605 161.33 91.2218 160.979 90.0783 160.276C88.9348 159.572 88.0471 158.589 87.415 157.325C86.7828 156.06 86.4668 154.583 86.4668 152.893C86.4668 151.195 86.7828 149.711 87.415 148.44C88.0471 147.168 88.9348 146.181 90.0783 145.478C91.2218 144.775 92.5605 144.423 94.0946 144.423C95.6287 144.423 96.9675 144.775 98.111 145.478C99.2544 146.181 100.142 147.168 100.774 148.44C101.406 149.711 101.722 151.195 101.722 152.893C101.722 154.583 101.406 156.06 100.774 157.325C100.142 158.589 99.2544 159.572 98.111 160.276C96.9675 160.979 95.6287 161.33 94.0946 161.33ZM94.1053 158.656C95.0996 158.656 95.9235 158.393 96.5769 157.868C97.2303 157.342 97.7132 156.643 98.0257 155.769C98.3453 154.896 98.5051 153.933 98.5051 152.882C98.5051 151.838 98.3453 150.879 98.0257 150.006C97.7132 149.125 97.2303 148.418 96.5769 147.886C95.9235 147.353 95.0996 147.087 94.1053 147.087C93.1039 147.087 92.2729 147.353 91.6124 147.886C90.959 148.418 90.4725 149.125 90.1529 150.006C89.8404 150.879 89.6841 151.838 89.6841 152.882C89.6841 153.933 89.8404 154.896 90.1529 155.769C90.4725 156.643 90.959 157.342 91.6124 157.868C92.2729 158.393 93.1039 158.656 94.1053 158.656ZM105.278 161V144.636H108.336V147.3H108.538C108.879 146.398 109.436 145.695 110.211 145.19C110.985 144.679 111.912 144.423 112.991 144.423C114.085 144.423 115.001 144.679 115.74 145.19C116.485 145.702 117.036 146.405 117.391 147.3H117.561C117.952 146.426 118.574 145.73 119.426 145.212C120.278 144.686 121.294 144.423 122.473 144.423C123.957 144.423 125.168 144.888 126.105 145.819C127.05 146.749 127.522 148.152 127.522 150.027V161H124.337V150.325C124.337 149.217 124.035 148.415 123.431 147.918C122.828 147.42 122.107 147.172 121.269 147.172C120.232 147.172 119.426 147.491 118.85 148.131C118.275 148.763 117.988 149.576 117.988 150.57V161H114.813V150.123C114.813 149.235 114.536 148.521 113.982 147.982C113.428 147.442 112.707 147.172 111.819 147.172C111.216 147.172 110.658 147.332 110.147 147.651C109.642 147.964 109.234 148.401 108.922 148.962C108.616 149.523 108.463 150.173 108.463 150.911V161H105.278ZM131.792 167.136V144.636H134.903V147.289H135.169C135.354 146.948 135.62 146.554 135.968 146.107C136.316 145.659 136.799 145.268 137.417 144.935C138.035 144.594 138.851 144.423 139.867 144.423C141.188 144.423 142.367 144.757 143.404 145.425C144.441 146.092 145.254 147.055 145.844 148.312C146.44 149.569 146.738 151.082 146.738 152.85C146.738 154.619 146.444 156.135 145.854 157.399C145.265 158.656 144.455 159.626 143.425 160.308C142.395 160.982 141.22 161.32 139.899 161.32C138.905 161.32 138.091 161.153 137.459 160.819C136.834 160.485 136.344 160.094 135.989 159.647C135.634 159.2 135.361 158.802 135.169 158.454H134.977V167.136H131.792ZM134.913 152.818C134.913 153.969 135.08 154.977 135.414 155.844C135.748 156.71 136.231 157.388 136.863 157.879C137.495 158.362 138.269 158.603 139.185 158.603C140.137 158.603 140.932 158.351 141.572 157.847C142.211 157.335 142.694 156.643 143.02 155.769C143.354 154.896 143.521 153.912 143.521 152.818C143.521 151.739 143.358 150.769 143.031 149.91C142.711 149.05 142.229 148.372 141.582 147.875C140.943 147.378 140.144 147.129 139.185 147.129C138.262 147.129 137.481 147.367 136.841 147.843C136.209 148.319 135.73 148.983 135.403 149.835C135.077 150.687 134.913 151.682 134.913 152.818ZM155.069 161.362C154.032 161.362 153.095 161.17 152.257 160.787C151.419 160.396 150.755 159.832 150.265 159.093C149.782 158.354 149.54 157.449 149.54 156.376C149.54 155.453 149.718 154.693 150.073 154.097C150.428 153.5 150.907 153.028 151.511 152.68C152.115 152.332 152.79 152.069 153.535 151.891C154.281 151.714 155.041 151.579 155.815 151.487C156.795 151.373 157.591 151.281 158.202 151.21C158.812 151.131 159.256 151.007 159.533 150.837C159.81 150.666 159.949 150.389 159.949 150.006V149.931C159.949 149.001 159.686 148.28 159.16 147.768C158.642 147.257 157.868 147.001 156.838 147.001C155.765 147.001 154.92 147.239 154.302 147.715C153.692 148.184 153.269 148.706 153.035 149.281L150.041 148.599C150.396 147.605 150.915 146.803 151.596 146.192C152.285 145.574 153.077 145.126 153.972 144.849C154.867 144.565 155.808 144.423 156.795 144.423C157.449 144.423 158.141 144.501 158.873 144.658C159.611 144.807 160.3 145.084 160.939 145.489C161.586 145.893 162.115 146.472 162.527 147.225C162.939 147.971 163.145 148.94 163.145 150.134V161H160.034V158.763H159.906C159.7 159.175 159.391 159.58 158.979 159.977C158.567 160.375 158.038 160.705 157.392 160.968C156.746 161.231 155.971 161.362 155.069 161.362ZM155.762 158.805C156.643 158.805 157.395 158.631 158.02 158.283C158.653 157.935 159.132 157.481 159.459 156.92C159.792 156.352 159.959 155.744 159.959 155.098V152.989C159.846 153.102 159.626 153.209 159.299 153.308C158.979 153.401 158.613 153.482 158.202 153.553C157.79 153.617 157.388 153.678 156.998 153.734C156.607 153.784 156.28 153.827 156.018 153.862C155.4 153.94 154.835 154.072 154.324 154.256C153.819 154.441 153.415 154.707 153.109 155.055C152.811 155.396 152.662 155.851 152.662 156.419C152.662 157.207 152.953 157.804 153.535 158.209C154.118 158.607 154.86 158.805 155.762 158.805ZM170.573 151.284V161H167.387V144.636H170.445V147.3H170.647C171.024 146.433 171.613 145.737 172.416 145.212C173.225 144.686 174.245 144.423 175.473 144.423C176.588 144.423 177.565 144.658 178.403 145.126C179.241 145.588 179.891 146.277 180.353 147.193C180.814 148.109 181.045 149.242 181.045 150.592V161H177.86V150.975C177.86 149.789 177.551 148.862 176.933 148.195C176.315 147.52 175.466 147.183 174.387 147.183C173.648 147.183 172.991 147.342 172.416 147.662C171.848 147.982 171.397 148.45 171.063 149.068C170.736 149.679 170.573 150.418 170.573 151.284ZM186.745 167.136C186.269 167.136 185.836 167.097 185.445 167.019C185.054 166.948 184.763 166.87 184.571 166.785L185.338 164.175C185.921 164.331 186.439 164.398 186.894 164.377C187.348 164.356 187.75 164.185 188.098 163.866C188.453 163.546 188.765 163.024 189.035 162.3L189.429 161.213L183.442 144.636H186.851L190.995 157.335H191.166L195.31 144.636H198.73L191.986 163.184C191.674 164.036 191.276 164.757 190.793 165.347C190.31 165.943 189.735 166.391 189.067 166.689C188.4 166.987 187.625 167.136 186.745 167.136ZM215.789 161.32C214.468 161.32 213.289 160.982 212.252 160.308C211.222 159.626 210.412 158.656 209.823 157.399C209.24 156.135 208.949 154.619 208.949 152.85C208.949 151.082 209.244 149.569 209.833 148.312C210.43 147.055 211.247 146.092 212.284 145.425C213.32 144.757 214.496 144.423 215.81 144.423C216.825 144.423 217.642 144.594 218.26 144.935C218.885 145.268 219.368 145.659 219.709 146.107C220.057 146.554 220.327 146.948 220.519 147.289H220.71V139.182H223.896V161H220.785V158.454H220.519C220.327 158.802 220.05 159.2 219.688 159.647C219.333 160.094 218.843 160.485 218.218 160.819C217.593 161.153 216.783 161.32 215.789 161.32ZM216.492 158.603C217.408 158.603 218.182 158.362 218.814 157.879C219.453 157.388 219.936 156.71 220.263 155.844C220.597 154.977 220.764 153.969 220.764 152.818C220.764 151.682 220.6 150.687 220.274 149.835C219.947 148.983 219.468 148.319 218.835 147.843C218.203 147.367 217.422 147.129 216.492 147.129C215.533 147.129 214.734 147.378 214.095 147.875C213.455 148.372 212.972 149.05 212.646 149.91C212.326 150.769 212.166 151.739 212.166 152.818C212.166 153.912 212.33 154.896 212.656 155.769C212.983 156.643 213.466 157.335 214.105 157.847C214.752 158.351 215.547 158.603 216.492 158.603ZM228.442 161V144.636H231.627V161H228.442ZM230.051 142.112C229.497 142.112 229.021 141.927 228.623 141.558C228.233 141.181 228.037 140.734 228.037 140.215C228.037 139.69 228.233 139.242 228.623 138.873C229.021 138.496 229.497 138.308 230.051 138.308C230.605 138.308 231.077 138.496 231.468 138.873C231.865 139.242 232.064 139.69 232.064 140.215C232.064 140.734 231.865 141.181 231.468 141.558C231.077 141.927 230.605 142.112 230.051 142.112ZM235.913 161V144.636H238.992V147.236H239.162C239.46 146.355 239.986 145.663 240.739 145.158C241.499 144.647 242.358 144.391 243.317 144.391C243.516 144.391 243.75 144.398 244.02 144.413C244.297 144.427 244.514 144.445 244.67 144.466V147.513C244.542 147.477 244.315 147.438 243.988 147.396C243.661 147.346 243.335 147.321 243.008 147.321C242.255 147.321 241.584 147.481 240.994 147.8C240.412 148.113 239.95 148.55 239.61 149.111C239.269 149.665 239.098 150.297 239.098 151.007V161H235.913ZM253.893 161.33C252.281 161.33 250.892 160.986 249.728 160.297C248.57 159.601 247.675 158.624 247.043 157.367C246.418 156.103 246.105 154.622 246.105 152.925C246.105 151.249 246.418 149.771 247.043 148.493C247.675 147.214 248.556 146.217 249.685 145.499C250.821 144.782 252.15 144.423 253.669 144.423C254.593 144.423 255.488 144.576 256.354 144.881C257.221 145.187 257.998 145.666 258.687 146.32C259.376 146.973 259.919 147.822 260.317 148.866C260.715 149.903 260.914 151.163 260.914 152.648V153.777H247.906V151.391H257.792C257.792 150.553 257.622 149.81 257.281 149.164C256.94 148.511 256.461 147.996 255.843 147.619C255.232 147.243 254.515 147.055 253.691 147.055C252.796 147.055 252.015 147.275 251.347 147.715C250.686 148.148 250.175 148.717 249.813 149.42C249.458 150.116 249.28 150.872 249.28 151.689V153.553C249.28 154.647 249.472 155.577 249.855 156.344C250.246 157.112 250.789 157.697 251.485 158.102C252.181 158.5 252.995 158.699 253.925 158.699C254.529 158.699 255.079 158.614 255.576 158.443C256.074 158.266 256.503 158.003 256.865 157.655C257.228 157.307 257.505 156.877 257.696 156.366L260.711 156.909C260.47 157.797 260.037 158.575 259.412 159.242C258.794 159.903 258.016 160.418 257.078 160.787C256.148 161.149 255.086 161.33 253.893 161.33ZM271.341 161.33C269.757 161.33 268.393 160.972 267.25 160.254C266.113 159.53 265.24 158.532 264.629 157.261C264.018 155.989 263.713 154.533 263.713 152.893C263.713 151.231 264.025 149.764 264.65 148.493C265.275 147.214 266.156 146.217 267.292 145.499C268.429 144.782 269.768 144.423 271.309 144.423C272.552 144.423 273.66 144.654 274.633 145.116C275.606 145.57 276.39 146.21 276.987 147.033C277.591 147.857 277.949 148.82 278.063 149.92H274.963C274.792 149.153 274.402 148.493 273.791 147.939C273.187 147.385 272.378 147.108 271.362 147.108C270.474 147.108 269.697 147.342 269.029 147.811C268.368 148.273 267.854 148.933 267.484 149.793C267.115 150.645 266.93 151.653 266.93 152.818C266.93 154.011 267.111 155.041 267.474 155.908C267.836 156.774 268.347 157.445 269.008 157.921C269.675 158.397 270.46 158.635 271.362 158.635C271.966 158.635 272.513 158.525 273.003 158.305C273.5 158.077 273.915 157.754 274.249 157.335C274.59 156.916 274.828 156.412 274.963 155.822H278.063C277.949 156.881 277.605 157.825 277.03 158.656C276.454 159.487 275.684 160.141 274.718 160.616C273.759 161.092 272.633 161.33 271.341 161.33ZM289.108 144.636V147.193H280.17V144.636H289.108ZM282.567 140.716H285.752V156.195C285.752 156.813 285.844 157.278 286.029 157.591C286.214 157.896 286.452 158.106 286.743 158.219C287.041 158.326 287.364 158.379 287.712 158.379C287.968 158.379 288.192 158.362 288.384 158.326C288.575 158.29 288.724 158.262 288.831 158.241L289.406 160.872C289.222 160.943 288.959 161.014 288.618 161.085C288.277 161.163 287.851 161.206 287.339 161.213C286.501 161.227 285.72 161.078 284.996 160.766C284.271 160.453 283.685 159.97 283.238 159.317C282.79 158.663 282.567 157.843 282.567 156.856V140.716ZM299.349 161.33C297.814 161.33 296.476 160.979 295.332 160.276C294.189 159.572 293.301 158.589 292.669 157.325C292.037 156.06 291.721 154.583 291.721 152.893C291.721 151.195 292.037 149.711 292.669 148.44C293.301 147.168 294.189 146.181 295.332 145.478C296.476 144.775 297.814 144.423 299.349 144.423C300.883 144.423 302.221 144.775 303.365 145.478C304.508 146.181 305.396 147.168 306.028 148.44C306.66 149.711 306.976 151.195 306.976 152.893C306.976 154.583 306.66 156.06 306.028 157.325C305.396 158.589 304.508 159.572 303.365 160.276C302.221 160.979 300.883 161.33 299.349 161.33ZM299.359 158.656C300.354 158.656 301.177 158.393 301.831 157.868C302.484 157.342 302.967 156.643 303.28 155.769C303.599 154.896 303.759 153.933 303.759 152.882C303.759 151.838 303.599 150.879 303.28 150.006C302.967 149.125 302.484 148.418 301.831 147.886C301.177 147.353 300.354 147.087 299.359 147.087C298.358 147.087 297.527 147.353 296.866 147.886C296.213 148.418 295.726 149.125 295.407 150.006C295.094 150.879 294.938 151.838 294.938 152.882C294.938 153.933 295.094 154.896 295.407 155.769C295.726 156.643 296.213 157.342 296.866 157.868C297.527 158.393 298.358 158.656 299.359 158.656ZM310.532 161V144.636H313.611V147.236H313.781C314.08 146.355 314.605 145.663 315.358 145.158C316.118 144.647 316.977 144.391 317.936 144.391C318.135 144.391 318.369 144.398 318.639 144.413C318.916 144.427 319.133 144.445 319.289 144.466V147.513C319.161 147.477 318.934 147.438 318.607 147.396C318.281 147.346 317.954 147.321 317.627 147.321C316.874 147.321 316.203 147.481 315.614 147.8C315.031 148.113 314.57 148.55 314.229 149.111C313.888 149.665 313.717 150.297 313.717 151.007V161H310.532ZM324.557 167.136C324.081 167.136 323.648 167.097 323.257 167.019C322.867 166.948 322.576 166.87 322.384 166.785L323.151 164.175C323.733 164.331 324.252 164.398 324.706 164.377C325.161 164.356 325.562 164.185 325.91 163.866C326.265 163.546 326.578 163.024 326.848 162.3L327.242 161.213L321.255 144.636H324.664L328.808 157.335H328.978L333.123 144.636H336.542L329.799 163.184C329.486 164.036 329.088 164.757 328.605 165.347C328.123 165.943 327.547 166.391 326.88 166.689C326.212 166.987 325.438 167.136 324.557 167.136Z" fill="white"/>
</svg>
