<svg width="368" height="300" viewBox="0 0 368 300" fill="none" xmlns="http://www.w3.org/2000/svg">
<rect width="368" height="300" fill="#717CFF"/>
<path d="M102.702 145.896L98.1045 143.761L100.403 147.866L102.209 147.373L102.702 145.896Z" fill="#F39C12"/>
<path d="M98.7612 156.896L100.896 152.134L102.209 152.791L102.702 154.597L98.7612 156.896Z" fill="#F39C12"/>
<path d="M111.731 156.239L108.119 154.597L107.134 154.104L107.627 152.791L109.433 152.134L111.731 156.239Z" fill="#F39C12"/>
<path d="M107.627 147.373L107.134 145.896L106.97 145.403L111.403 142.94L109.433 147.866L107.627 147.373Z" fill="#F39C12"/>
<path d="M107.298 147.701L105 140.478L102.701 147.701L95.4776 150L102.701 152.299L105 159.522L107.298 152.299L114.522 150L107.298 147.701Z" fill="#F1C40F"/>
<path d="M104.636 139.116C104.578 139.183 104.154 140.496 103.691 142.039C103.218 143.574 102.813 144.867 102.775 144.905C102.746 144.954 101.512 144.413 100.036 143.728C98.561 143.033 97.2593 142.474 97.1435 142.474C96.8735 142.474 96.7 142.647 96.7 142.898C96.7 143.014 97.3268 144.143 98.0982 145.436C98.8696 146.719 99.4964 147.81 99.4964 147.858C99.4964 147.906 98.3103 148.302 96.8735 148.746C95.4271 149.189 94.1832 149.585 94.1254 149.643C94.0579 149.691 94 149.855 94 150.01C94 150.376 94.0386 150.396 97.2303 151.361C98.6671 151.795 99.8628 152.181 99.911 152.219C99.9496 152.248 99.4192 153.483 98.725 154.96C98.0403 156.436 97.4714 157.739 97.4714 157.854C97.4714 158.115 97.645 158.298 97.8957 158.298C98.0018 158.298 99.1396 157.671 100.432 156.899C101.724 156.127 102.813 155.5 102.862 155.5C102.9 155.5 103.296 156.687 103.739 158.125C104.173 159.572 104.578 160.817 104.636 160.875C104.684 160.942 104.848 161 105.002 161C105.369 161 105.398 160.952 106.352 157.768C106.786 156.33 107.172 155.133 107.211 155.085C107.24 155.046 108.483 155.577 109.959 156.272C111.434 156.957 112.736 157.526 112.842 157.526C113.112 157.526 113.286 157.353 113.286 157.102C113.286 156.986 112.659 155.857 111.887 154.564C111.116 153.281 110.489 152.2 110.489 152.152C110.489 152.104 111.608 151.718 112.977 151.303C114.337 150.888 115.571 150.482 115.725 150.415C116.092 150.232 116.092 149.768 115.725 149.585C115.571 149.508 114.259 149.093 112.803 148.649C111.347 148.205 110.123 147.819 110.075 147.781C110.036 147.752 110.566 146.507 111.261 145.031C111.945 143.554 112.514 142.252 112.514 142.146C112.514 141.875 112.341 141.702 112.09 141.702C111.974 141.702 110.846 142.329 109.554 143.101C108.271 143.873 107.182 144.5 107.133 144.5C107.085 144.5 106.709 143.381 106.295 142.011C105.398 139.058 105.369 139 105.002 139C104.848 139 104.684 139.058 104.636 139.116ZM106.034 144.519C106.69 146.661 107.076 147.781 107.191 147.877C107.297 147.954 108.811 148.456 110.566 148.987C112.331 149.518 113.768 149.971 113.768 150C113.768 150.029 112.321 150.482 110.557 151.013C108.474 151.64 107.288 152.046 107.162 152.171C107.037 152.296 106.642 153.445 106.015 155.529C105.485 157.266 105.031 158.684 104.993 158.684C104.964 158.684 104.501 157.285 103.98 155.568C103.46 153.86 102.977 152.364 102.91 152.258C102.775 152.036 102.534 151.949 98.4646 150.714C97.2785 150.357 96.3143 150.039 96.3143 150C96.3143 149.961 97.7318 149.508 99.4675 148.977C101.194 148.456 102.698 147.954 102.794 147.877C102.91 147.781 103.315 146.613 103.951 144.519C104.491 142.763 104.964 141.316 104.993 141.316C105.031 141.316 105.494 142.763 106.034 144.519ZM110.547 144.23C110.364 144.616 109.997 145.407 109.718 145.996C109.448 146.575 109.178 147.154 109.139 147.269C109.052 147.472 109.052 147.472 108.512 147.308C108.223 147.211 107.943 147.105 107.905 147.047C107.808 146.941 107.375 145.561 107.423 145.523C107.538 145.426 110.74 143.545 110.798 143.535C110.836 143.535 110.721 143.854 110.547 144.23ZM100.895 145.224C101.531 145.523 102.148 145.812 102.264 145.851C102.466 145.938 102.466 145.938 102.302 146.478C102.206 146.768 102.1 147.047 102.042 147.086C101.936 147.182 100.557 147.617 100.519 147.568C100.432 147.472 98.5321 144.22 98.5321 144.172C98.5321 144.114 99.1396 144.384 100.895 145.224ZM110.48 154.111C111.029 155.037 111.463 155.818 111.444 155.828C111.405 155.857 110.942 155.645 108.262 154.39L107.519 154.043L107.683 153.522C107.77 153.232 107.876 152.962 107.915 152.924C107.992 152.856 109.207 152.441 109.38 152.422C109.438 152.422 109.93 153.175 110.48 154.111ZM102.061 152.933C102.167 153.049 102.621 154.439 102.563 154.477C102.399 154.612 99.1878 156.475 99.1685 156.455C99.1396 156.417 99.3517 155.954 100.605 153.271L100.952 152.528L101.454 152.673C101.734 152.75 102.004 152.866 102.061 152.933Z" fill="#0D0D0D"/>
<path d="M147.163 146.075C146.957 145.428 146.68 144.849 146.332 144.338C145.991 143.82 145.582 143.379 145.107 143.017C144.631 142.648 144.087 142.367 143.477 142.175C142.873 141.984 142.209 141.888 141.484 141.888C140.256 141.888 139.148 142.204 138.161 142.836C137.173 143.468 136.392 144.395 135.817 145.616C135.249 146.831 134.964 148.319 134.964 150.08C134.964 151.849 135.252 153.344 135.827 154.565C136.403 155.787 137.191 156.714 138.192 157.346C139.194 157.978 140.334 158.294 141.612 158.294C142.798 158.294 143.832 158.053 144.712 157.57C145.6 157.087 146.286 156.405 146.768 155.524C147.259 154.636 147.504 153.592 147.504 152.392L148.356 152.552H142.113V149.835H150.689V152.317C150.689 154.15 150.298 155.741 149.517 157.09C148.743 158.433 147.67 159.469 146.3 160.201C144.936 160.933 143.374 161.298 141.612 161.298C139.638 161.298 137.905 160.844 136.413 159.935C134.929 159.026 133.771 157.737 132.94 156.067C132.109 154.391 131.694 152.403 131.694 150.102C131.694 148.362 131.935 146.799 132.418 145.414C132.901 144.029 133.58 142.854 134.453 141.888C135.334 140.915 136.367 140.173 137.553 139.661C138.746 139.143 140.05 138.884 141.463 138.884C142.642 138.884 143.739 139.058 144.755 139.406C145.778 139.754 146.687 140.247 147.482 140.886C148.285 141.526 148.949 142.286 149.474 143.166C150 144.04 150.355 145.009 150.54 146.075H147.163ZM159.374 161.362C158.337 161.362 157.4 161.17 156.562 160.787C155.724 160.396 155.059 159.832 154.569 159.093C154.086 158.354 153.845 157.449 153.845 156.376C153.845 155.453 154.023 154.693 154.378 154.097C154.733 153.5 155.212 153.028 155.816 152.68C156.42 152.332 157.094 152.069 157.84 151.891C158.586 151.714 159.346 151.579 160.12 151.487C161.1 151.373 161.895 151.281 162.506 151.21C163.117 151.131 163.561 151.007 163.838 150.837C164.115 150.666 164.253 150.389 164.253 150.006V149.931C164.253 149.001 163.991 148.28 163.465 147.768C162.947 147.257 162.172 147.001 161.143 147.001C160.07 147.001 159.225 147.239 158.607 147.715C157.996 148.184 157.574 148.706 157.339 149.281L154.346 148.599C154.701 147.605 155.219 146.803 155.901 146.192C156.59 145.574 157.382 145.126 158.277 144.849C159.172 144.565 160.113 144.423 161.1 144.423C161.753 144.423 162.446 144.501 163.177 144.658C163.916 144.807 164.605 145.084 165.244 145.489C165.89 145.893 166.42 146.472 166.831 147.225C167.243 147.971 167.449 148.94 167.449 150.134V161H164.339V158.763H164.211C164.005 159.175 163.696 159.58 163.284 159.977C162.872 160.375 162.343 160.705 161.697 160.968C161.05 161.231 160.276 161.362 159.374 161.362ZM160.067 158.805C160.947 158.805 161.7 158.631 162.325 158.283C162.957 157.935 163.437 157.481 163.763 156.92C164.097 156.352 164.264 155.744 164.264 155.098V152.989C164.15 153.102 163.93 153.209 163.604 153.308C163.284 153.401 162.918 153.482 162.506 153.553C162.094 153.617 161.693 153.678 161.302 153.734C160.912 153.784 160.585 153.827 160.322 153.862C159.704 153.94 159.14 154.072 158.628 154.256C158.124 154.441 157.719 154.707 157.414 155.055C157.116 155.396 156.966 155.851 156.966 156.419C156.966 157.207 157.258 157.804 157.84 158.209C158.422 158.607 159.165 158.805 160.067 158.805ZM171.351 161V158.816L180.215 147.555V147.406H171.639V144.636H184.189V146.959L175.666 158.081V158.23H184.487V161H171.351ZM194.829 161.33C193.216 161.33 191.828 160.986 190.663 160.297C189.506 159.601 188.611 158.624 187.979 157.367C187.354 156.103 187.041 154.622 187.041 152.925C187.041 151.249 187.354 149.771 187.979 148.493C188.611 147.214 189.491 146.217 190.621 145.499C191.757 144.782 193.085 144.423 194.605 144.423C195.528 144.423 196.423 144.576 197.29 144.881C198.156 145.187 198.934 145.666 199.623 146.32C200.312 146.973 200.855 147.822 201.253 148.866C201.65 149.903 201.849 151.163 201.849 152.648V153.777H188.841V151.391H198.728C198.728 150.553 198.557 149.81 198.216 149.164C197.876 148.511 197.396 147.996 196.778 147.619C196.167 147.243 195.45 147.055 194.626 147.055C193.731 147.055 192.95 147.275 192.282 147.715C191.622 148.148 191.111 148.717 190.748 149.42C190.393 150.116 190.216 150.872 190.216 151.689V153.553C190.216 154.647 190.407 155.577 190.791 156.344C191.182 157.112 191.725 157.697 192.421 158.102C193.117 158.5 193.93 158.699 194.861 158.699C195.464 158.699 196.015 158.614 196.512 158.443C197.009 158.266 197.439 158.003 197.801 157.655C198.163 157.307 198.44 156.877 198.632 156.366L201.647 156.909C201.405 157.797 200.972 158.575 200.347 159.242C199.729 159.903 198.952 160.418 198.014 160.787C197.084 161.149 196.022 161.33 194.829 161.33ZM213.022 144.636V147.193H204.084V144.636H213.022ZM206.481 140.716H209.666V156.195C209.666 156.813 209.759 157.278 209.943 157.591C210.128 157.896 210.366 158.106 210.657 158.219C210.955 158.326 211.278 158.379 211.626 158.379C211.882 158.379 212.106 158.362 212.298 158.326C212.489 158.29 212.638 158.262 212.745 158.241L213.32 160.872C213.136 160.943 212.873 161.014 212.532 161.085C212.191 161.163 211.765 161.206 211.254 161.213C210.415 161.227 209.634 161.078 208.91 160.766C208.185 160.453 207.599 159.97 207.152 159.317C206.705 158.663 206.481 157.843 206.481 156.856V140.716ZM224.184 144.636V147.193H215.246V144.636H224.184ZM217.643 140.716H220.828V156.195C220.828 156.813 220.921 157.278 221.105 157.591C221.29 157.896 221.528 158.106 221.819 158.219C222.117 158.326 222.441 158.379 222.789 158.379C223.044 158.379 223.268 158.362 223.46 158.326C223.651 158.29 223.801 158.262 223.907 158.241L224.482 160.872C224.298 160.943 224.035 161.014 223.694 161.085C223.353 161.163 222.927 161.206 222.416 161.213C221.578 161.227 220.796 161.078 220.072 160.766C219.347 160.453 218.762 159.97 218.314 159.317C217.867 158.663 217.643 157.843 217.643 156.856V140.716ZM234.585 161.33C232.972 161.33 231.584 160.986 230.419 160.297C229.261 159.601 228.366 158.624 227.734 157.367C227.109 156.103 226.797 154.622 226.797 152.925C226.797 151.249 227.109 149.771 227.734 148.493C228.366 147.214 229.247 146.217 230.376 145.499C231.513 144.782 232.841 144.423 234.361 144.423C235.284 144.423 236.179 144.576 237.045 144.881C237.912 145.187 238.69 145.666 239.379 146.32C240.067 146.973 240.611 147.822 241.009 148.866C241.406 149.903 241.605 151.163 241.605 152.648V153.777H228.597V151.391H238.484C238.484 150.553 238.313 149.81 237.972 149.164C237.631 148.511 237.152 147.996 236.534 147.619C235.923 147.243 235.206 147.055 234.382 147.055C233.487 147.055 232.706 147.275 232.038 147.715C231.378 148.148 230.866 148.717 230.504 149.42C230.149 150.116 229.972 150.872 229.972 151.689V153.553C229.972 154.647 230.163 155.577 230.547 156.344C230.938 157.112 231.481 157.697 232.177 158.102C232.873 158.5 233.686 158.699 234.616 158.699C235.22 158.699 235.771 158.614 236.268 158.443C236.765 158.266 237.195 158.003 237.557 157.655C237.919 157.307 238.196 156.877 238.388 156.366L241.403 156.909C241.161 157.797 240.728 158.575 240.103 159.242C239.485 159.903 238.707 160.418 237.77 160.787C236.839 161.149 235.778 161.33 234.585 161.33ZM252.192 161.33C250.58 161.33 249.191 160.986 248.026 160.297C246.869 159.601 245.974 158.624 245.342 157.367C244.717 156.103 244.404 154.622 244.404 152.925C244.404 151.249 244.717 149.771 245.342 148.493C245.974 147.214 246.855 146.217 247.984 145.499C249.12 144.782 250.448 144.423 251.968 144.423C252.892 144.423 253.786 144.576 254.653 144.881C255.519 145.187 256.297 145.666 256.986 146.32C257.675 146.973 258.218 147.822 258.616 148.866C259.014 149.903 259.213 151.163 259.213 152.648V153.777H246.205V151.391H256.091C256.091 150.553 255.921 149.81 255.58 149.164C255.239 148.511 254.759 147.996 254.142 147.619C253.531 147.243 252.813 147.055 251.99 147.055C251.095 147.055 250.313 147.275 249.646 147.715C248.985 148.148 248.474 148.717 248.112 149.42C247.757 150.116 247.579 150.872 247.579 151.689V153.553C247.579 154.647 247.771 155.577 248.154 156.344C248.545 157.112 249.088 157.697 249.784 158.102C250.48 158.5 251.294 158.699 252.224 158.699C252.828 158.699 253.378 158.614 253.875 158.443C254.372 158.266 254.802 158.003 255.164 157.655C255.526 157.307 255.803 156.877 255.995 156.366L259.01 156.909C258.769 157.797 258.335 158.575 257.71 159.242C257.093 159.903 256.315 160.418 255.377 160.787C254.447 161.149 253.385 161.33 252.192 161.33ZM262.747 161V144.636H265.826V147.236H265.996C266.294 146.355 266.82 145.663 267.573 145.158C268.333 144.647 269.192 144.391 270.151 144.391C270.35 144.391 270.584 144.398 270.854 144.413C271.131 144.427 271.348 144.445 271.504 144.466V147.513C271.376 147.477 271.149 147.438 270.822 147.396C270.495 147.346 270.169 147.321 269.842 147.321C269.089 147.321 268.418 147.481 267.828 147.8C267.246 148.113 266.784 148.55 266.444 149.111C266.103 149.665 265.932 150.297 265.932 151.007V161H262.747Z" fill="white"/>
</svg>
