<svg width="368" height="300" viewBox="0 0 368 300" fill="none" xmlns="http://www.w3.org/2000/svg">
<rect width="368" height="300" fill="#C62828"/>
<path d="M151 150.166C150.999 149.637 150.859 149.12 150.598 148.679C150.337 148.239 149.966 147.894 149.532 147.688C149.098 147.482 148.62 147.423 148.156 147.52C147.693 147.616 147.265 147.863 146.926 148.23C145.021 146.787 142.787 145.987 140.49 145.926L141.588 140.132L145.179 141.008C145.198 141.475 145.368 141.919 145.657 142.257C145.946 142.594 146.335 142.801 146.751 142.839C147.167 142.877 147.581 142.744 147.915 142.464C148.25 142.184 148.482 141.777 148.567 141.319C148.653 140.861 148.587 140.383 148.382 139.976C148.176 139.568 147.846 139.259 147.451 139.106C147.057 138.953 146.627 138.966 146.241 139.144C145.855 139.321 145.54 139.651 145.355 140.071L141.358 139.122C141.237 139.097 141.116 139.122 141.039 139.196C140.94 139.257 140.885 139.368 140.863 139.516L139.644 145.95C137.085 146.036 134.779 146.912 133.11 148.243C132.655 147.774 132.058 147.518 131.44 147.528C130.887 147.51 130.346 147.71 129.91 148.093C129.474 148.476 129.171 149.018 129.054 149.625C128.937 150.232 129.012 150.866 129.267 151.417C129.523 151.969 129.942 152.402 130.452 152.643C130.412 152.912 130.393 153.184 130.397 153.457C130.397 157.61 134.702 161 140.018 161C145.333 161 149.638 157.635 149.638 153.457C149.638 153.198 149.627 152.914 149.583 152.643C150.006 152.426 150.364 152.077 150.616 151.638C150.867 151.198 151 150.688 151 150.166ZM134.527 152.088C134.527 151.028 135.273 150.166 136.218 150.166C137.162 150.166 137.931 151.028 137.931 152.088C137.931 152.598 137.751 153.087 137.429 153.448C137.108 153.809 136.672 154.011 136.218 154.011C135.273 154.036 134.527 153.148 134.527 152.088ZM144.092 157.191C142.906 158.523 140.666 158.621 140.018 158.621C139.348 158.621 137.107 158.498 135.943 157.191C135.902 157.145 135.869 157.091 135.846 157.03C135.824 156.97 135.812 156.905 135.812 156.84C135.812 156.775 135.824 156.71 135.846 156.65C135.869 156.589 135.902 156.535 135.943 156.489C135.984 156.442 136.033 156.405 136.087 156.38C136.14 156.355 136.198 156.342 136.256 156.342C136.314 156.342 136.372 156.355 136.426 156.38C136.48 156.405 136.528 156.442 136.569 156.489C137.316 157.327 138.919 157.61 140.018 157.61C141.116 157.61 142.73 157.327 143.466 156.489C143.507 156.442 143.556 156.405 143.609 156.38C143.663 156.355 143.721 156.342 143.779 156.342C143.837 156.342 143.895 156.355 143.949 156.38C144.003 156.405 144.051 156.442 144.092 156.489C144.246 156.686 144.246 156.994 144.092 157.191ZM143.774 154.036C142.829 154.036 142.06 153.173 142.06 152.113C142.06 151.603 142.241 151.114 142.562 150.753C142.883 150.393 143.319 150.19 143.774 150.19C144.718 150.19 145.509 151.053 145.509 152.113C145.498 152.623 145.31 153.109 144.987 153.467C144.663 153.826 144.228 154.03 143.774 154.036Z" fill="white"/>
<path d="M167.397 161V139.182H175.174C176.864 139.182 178.267 139.473 179.382 140.055C180.504 140.638 181.342 141.444 181.896 142.474C182.45 143.496 182.727 144.679 182.727 146.021C182.727 147.357 182.447 148.532 181.886 149.548C181.332 150.556 180.494 151.341 179.371 151.902C178.256 152.463 176.854 152.744 175.163 152.744H169.272V149.91H174.865C175.93 149.91 176.797 149.757 177.464 149.452C178.139 149.146 178.633 148.702 178.945 148.12C179.258 147.538 179.414 146.838 179.414 146.021C179.414 145.197 179.254 144.484 178.935 143.88C178.622 143.276 178.129 142.815 177.454 142.495C176.786 142.168 175.909 142.005 174.822 142.005H170.689V161H167.397ZM178.168 151.156L183.558 161H179.808L174.524 151.156H178.168ZM186.477 161V144.636H189.663V161H186.477ZM188.086 142.112C187.532 142.112 187.056 141.927 186.658 141.558C186.268 141.181 186.072 140.734 186.072 140.215C186.072 139.69 186.268 139.242 186.658 138.873C187.056 138.496 187.532 138.308 188.086 138.308C188.64 138.308 189.112 138.496 189.503 138.873C189.901 139.242 190.099 139.69 190.099 140.215C190.099 140.734 189.901 141.181 189.503 141.558C189.112 141.927 188.64 142.112 188.086 142.112ZM201.001 161.33C199.388 161.33 198 160.986 196.835 160.297C195.677 159.601 194.782 158.624 194.15 157.367C193.525 156.103 193.213 154.622 193.213 152.925C193.213 151.249 193.525 149.771 194.15 148.493C194.782 147.214 195.663 146.217 196.792 145.499C197.929 144.782 199.257 144.423 200.777 144.423C201.7 144.423 202.595 144.576 203.461 144.881C204.328 145.187 205.106 145.666 205.795 146.32C206.483 146.973 207.027 147.822 207.425 148.866C207.822 149.903 208.021 151.163 208.021 152.648V153.777H195.013V151.391H204.9C204.9 150.553 204.729 149.81 204.388 149.164C204.047 148.511 203.568 147.996 202.95 147.619C202.339 147.243 201.622 147.055 200.798 147.055C199.903 147.055 199.122 147.275 198.454 147.715C197.794 148.148 197.282 148.717 196.92 149.42C196.565 150.116 196.388 150.872 196.388 151.689V153.553C196.388 154.647 196.579 155.577 196.963 156.344C197.354 157.112 197.897 157.697 198.593 158.102C199.289 158.5 200.102 158.699 201.032 158.699C201.636 158.699 202.187 158.614 202.684 158.443C203.181 158.266 203.611 158.003 203.973 157.655C204.335 157.307 204.612 156.877 204.804 156.366L207.819 156.909C207.577 157.797 207.144 158.575 206.519 159.242C205.901 159.903 205.123 160.418 204.186 160.787C203.256 161.149 202.194 161.33 201.001 161.33ZM214.741 151.284V161H211.555V144.636H214.613V147.3H214.815C215.192 146.433 215.781 145.737 216.584 145.212C217.393 144.686 218.413 144.423 219.641 144.423C220.756 144.423 221.733 144.658 222.571 145.126C223.409 145.588 224.059 146.277 224.521 147.193C224.982 148.109 225.213 149.242 225.213 150.592V161H222.028V150.975C222.028 149.789 221.719 148.862 221.101 148.195C220.483 147.52 219.634 147.183 218.555 147.183C217.816 147.183 217.159 147.342 216.584 147.662C216.016 147.982 215.565 148.45 215.231 149.068C214.904 149.679 214.741 150.418 214.741 151.284ZM237.124 144.636V147.193H228.185V144.636H237.124ZM230.582 140.716H233.768V156.195C233.768 156.813 233.86 157.278 234.045 157.591C234.229 157.896 234.467 158.106 234.759 158.219C235.057 158.326 235.38 158.379 235.728 158.379C235.984 158.379 236.207 158.362 236.399 158.326C236.591 158.29 236.74 158.262 236.847 158.241L237.422 160.872C237.237 160.943 236.974 161.014 236.634 161.085C236.293 161.163 235.866 161.206 235.355 161.213C234.517 161.227 233.736 161.078 233.011 160.766C232.287 160.453 231.701 159.97 231.254 159.317C230.806 158.663 230.582 157.843 230.582 156.856V140.716Z" fill="white"/>
</svg>
