<svg width="368" height="300" viewBox="0 0 368 300" fill="none" xmlns="http://www.w3.org/2000/svg">
<rect width="368" height="300" fill="black"/>
<path d="M83.5013 153.498C83.2244 153.498 83 153.723 83 154C83 154.276 83.2244 154.501 83.5013 154.501H89.4992V160.499C89.4992 160.776 89.7236 161 90.0005 161C90.2773 161 90.5017 160.776 90.5017 160.499V154.501H97.4983V160.499C97.4983 160.776 97.7227 161 97.9995 161C98.2764 161 98.5008 160.776 98.5008 160.499V154.501H104.499C104.776 154.501 105 154.276 105 154C105 153.723 104.776 153.498 104.499 153.498H98.5008V146.502H104.499C104.776 146.502 105 146.277 105 146C105 145.724 104.776 145.499 104.499 145.499H98.5008V139.501C98.5008 139.224 98.2764 139 97.9995 139C97.7227 139 97.4983 139.224 97.4983 139.501V145.499H90.5017V139.501C90.5017 139.224 90.2773 139 90.0005 139C89.7236 139 89.4992 139.224 89.4992 139.501V145.499H83.5013C83.2244 145.499 83 145.724 83 146C83 146.277 83.2244 146.502 83.5013 146.502H89.4992V153.498H83.5013ZM90.5017 146.502H97.4983V153.498H90.5017V146.502Z" fill="white"/>
<path d="M96.0931 139.908C95.8973 139.712 95.58 139.712 95.3842 139.908L93.9999 141.292L92.6157 139.908C92.4198 139.712 92.1025 139.712 91.9067 139.908C91.7109 140.104 91.7109 140.421 91.9067 140.617L93.291 142.001L91.9067 143.385C91.7109 143.581 91.7109 143.898 91.9067 144.094C92.0046 144.192 92.1329 144.241 92.2612 144.241C92.3894 144.241 92.5177 144.192 92.6156 144.094L93.9999 142.71L95.3842 144.094C95.4821 144.192 95.6104 144.241 95.7387 144.241C95.8669 144.241 95.9952 144.192 96.0931 144.094C96.2889 143.898 96.2889 143.581 96.0931 143.385L94.7088 142.001L96.0931 140.617C96.2889 140.421 96.2889 140.104 96.0931 139.908Z" fill="white"/>
<path d="M88.0942 155.9C87.8983 155.705 87.581 155.705 87.3852 155.9L86.0009 157.285L84.6167 155.9C84.4208 155.705 84.1035 155.705 83.9077 155.9C83.7119 156.096 83.7119 156.413 83.9077 156.609L85.292 157.994L83.9077 159.378C83.7119 159.574 83.7119 159.891 83.9077 160.087C84.0056 160.185 84.1339 160.234 84.2621 160.234C84.3904 160.234 84.5187 160.185 84.6166 160.087L86.0009 158.702L87.3851 160.087C87.4831 160.185 87.6113 160.234 87.7396 160.234C87.8679 160.234 87.9961 160.185 88.094 160.087C88.2898 159.891 88.2898 159.574 88.094 159.378L86.7098 157.994L88.094 156.609C88.2899 156.413 88.2899 156.096 88.0942 155.9Z" fill="white"/>
<path d="M94.0001 147.232C92.474 147.232 91.2324 148.474 91.2324 150C91.2324 151.526 92.474 152.768 94.0001 152.768C95.5262 152.768 96.7677 151.526 96.7677 150C96.7677 148.474 95.5262 147.232 94.0001 147.232ZM94.0001 151.765C93.0267 151.765 92.235 150.973 92.235 150C92.235 149.027 93.0268 148.235 94.0001 148.235C94.9734 148.235 95.7652 149.027 95.7652 150C95.7652 150.973 94.9734 151.765 94.0001 151.765Z" fill="white"/>
<path d="M120.321 142.016V139.182H137.207V142.016H130.399V161H127.118V142.016H120.321ZM140.682 161V144.636H143.868V161H140.682ZM142.291 142.112C141.737 142.112 141.261 141.927 140.863 141.558C140.473 141.181 140.278 140.734 140.278 140.215C140.278 139.69 140.473 139.242 140.863 138.873C141.261 138.496 141.737 138.308 142.291 138.308C142.845 138.308 143.317 138.496 143.708 138.873C144.106 139.242 144.305 139.69 144.305 140.215C144.305 140.734 144.106 141.181 143.708 141.558C143.317 141.927 142.845 142.112 142.291 142.112ZM155.046 161.33C153.462 161.33 152.098 160.972 150.955 160.254C149.819 159.53 148.945 158.532 148.334 157.261C147.723 155.989 147.418 154.533 147.418 152.893C147.418 151.231 147.73 149.764 148.355 148.493C148.98 147.214 149.861 146.217 150.998 145.499C152.134 144.782 153.473 144.423 155.014 144.423C156.257 144.423 157.365 144.654 158.338 145.116C159.311 145.57 160.096 146.21 160.692 147.033C161.296 147.857 161.654 148.82 161.768 149.92H158.668C158.498 149.153 158.107 148.493 157.496 147.939C156.892 147.385 156.083 147.108 155.067 147.108C154.179 147.108 153.402 147.342 152.734 147.811C152.074 148.273 151.559 148.933 151.189 149.793C150.82 150.645 150.635 151.653 150.635 152.818C150.635 154.011 150.816 155.041 151.179 155.908C151.541 156.774 152.052 157.445 152.713 157.921C153.38 158.397 154.165 158.635 155.067 158.635C155.671 158.635 156.218 158.525 156.708 158.305C157.205 158.077 157.62 157.754 157.954 157.335C158.295 156.916 158.533 156.412 158.668 155.822H161.768C161.654 156.881 161.31 157.825 160.735 158.656C160.159 159.487 159.389 160.141 158.423 160.616C157.464 161.092 156.338 161.33 155.046 161.33ZM172.294 142.016V139.182H189.179V142.016H182.372V161H179.091V142.016H172.294ZM195.191 161.362C194.154 161.362 193.216 161.17 192.378 160.787C191.54 160.396 190.876 159.832 190.386 159.093C189.903 158.354 189.661 157.449 189.661 156.376C189.661 155.453 189.839 154.693 190.194 154.097C190.549 153.5 191.029 153.028 191.632 152.68C192.236 152.332 192.911 152.069 193.656 151.891C194.402 151.714 195.162 151.579 195.936 151.487C196.916 151.373 197.712 151.281 198.323 151.21C198.933 151.131 199.377 151.007 199.654 150.837C199.931 150.666 200.07 150.389 200.07 150.006V149.931C200.07 149.001 199.807 148.28 199.281 147.768C198.763 147.257 197.989 147.001 196.959 147.001C195.887 147.001 195.041 147.239 194.423 147.715C193.813 148.184 193.39 148.706 193.156 149.281L190.162 148.599C190.517 147.605 191.036 146.803 191.718 146.192C192.406 145.574 193.198 145.126 194.093 144.849C194.988 144.565 195.929 144.423 196.916 144.423C197.57 144.423 198.262 144.501 198.994 144.658C199.732 144.807 200.421 145.084 201.061 145.489C201.707 145.893 202.236 146.472 202.648 147.225C203.06 147.971 203.266 148.94 203.266 150.134V161H200.155V158.763H200.027C199.821 159.175 199.512 159.58 199.1 159.977C198.688 160.375 198.159 160.705 197.513 160.968C196.867 161.231 196.093 161.362 195.191 161.362ZM195.883 158.805C196.764 158.805 197.517 158.631 198.142 158.283C198.774 157.935 199.253 157.481 199.58 156.92C199.914 156.352 200.08 155.744 200.08 155.098V152.989C199.967 153.102 199.747 153.209 199.42 153.308C199.1 153.401 198.735 153.482 198.323 153.553C197.911 153.617 197.509 153.678 197.119 153.734C196.728 153.784 196.401 153.827 196.139 153.862C195.521 153.94 194.956 154.072 194.445 154.256C193.941 154.441 193.536 154.707 193.23 155.055C192.932 155.396 192.783 155.851 192.783 156.419C192.783 157.207 193.074 157.804 193.656 158.209C194.239 158.607 194.981 158.805 195.883 158.805ZM214.401 161.33C212.817 161.33 211.454 160.972 210.31 160.254C209.174 159.53 208.3 158.532 207.69 157.261C207.079 155.989 206.773 154.533 206.773 152.893C206.773 151.231 207.086 149.764 207.711 148.493C208.336 147.214 209.217 146.217 210.353 145.499C211.489 144.782 212.828 144.423 214.369 144.423C215.612 144.423 216.72 144.654 217.693 145.116C218.666 145.57 219.451 146.21 220.048 147.033C220.651 147.857 221.01 148.82 221.124 149.92H218.023C217.853 149.153 217.462 148.493 216.852 147.939C216.248 147.385 215.438 147.108 214.423 147.108C213.535 147.108 212.757 147.342 212.089 147.811C211.429 148.273 210.914 148.933 210.545 149.793C210.175 150.645 209.991 151.653 209.991 152.818C209.991 154.011 210.172 155.041 210.534 155.908C210.896 156.774 211.408 157.445 212.068 157.921C212.736 158.397 213.521 158.635 214.423 158.635C215.026 158.635 215.573 158.525 216.063 158.305C216.56 158.077 216.976 157.754 217.31 157.335C217.651 156.916 217.888 156.412 218.023 155.822H221.124C221.01 156.881 220.665 157.825 220.09 158.656C219.515 159.487 218.744 160.141 217.778 160.616C216.82 161.092 215.694 161.33 214.401 161.33ZM231.649 142.016V139.182H248.535V142.016H241.727V161H238.446V142.016H231.649ZM256.53 161.33C254.996 161.33 253.657 160.979 252.514 160.276C251.37 159.572 250.483 158.589 249.85 157.325C249.218 156.06 248.902 154.583 248.902 152.893C248.902 151.195 249.218 149.711 249.85 148.44C250.483 147.168 251.37 146.181 252.514 145.478C253.657 144.775 254.996 144.423 256.53 144.423C258.064 144.423 259.403 144.775 260.547 145.478C261.69 146.181 262.578 147.168 263.21 148.44C263.842 149.711 264.158 151.195 264.158 152.893C264.158 154.583 263.842 156.06 263.21 157.325C262.578 158.589 261.69 159.572 260.547 160.276C259.403 160.979 258.064 161.33 256.53 161.33ZM256.541 158.656C257.535 158.656 258.359 158.393 259.012 157.868C259.666 157.342 260.149 156.643 260.461 155.769C260.781 154.896 260.941 153.933 260.941 152.882C260.941 151.838 260.781 150.879 260.461 150.006C260.149 149.125 259.666 148.418 259.012 147.886C258.359 147.353 257.535 147.087 256.541 147.087C255.539 147.087 254.708 147.353 254.048 147.886C253.395 148.418 252.908 149.125 252.588 150.006C252.276 150.879 252.12 151.838 252.12 152.882C252.12 153.933 252.276 154.896 252.588 155.769C252.908 156.643 253.395 157.342 254.048 157.868C254.708 158.393 255.539 158.656 256.541 158.656ZM274.766 161.33C273.154 161.33 271.765 160.986 270.601 160.297C269.443 159.601 268.548 158.624 267.916 157.367C267.291 156.103 266.979 154.622 266.979 152.925C266.979 151.249 267.291 149.771 267.916 148.493C268.548 147.214 269.429 146.217 270.558 145.499C271.694 144.782 273.023 144.423 274.542 144.423C275.466 144.423 276.361 144.576 277.227 144.881C278.094 145.187 278.871 145.666 279.56 146.32C280.249 146.973 280.792 147.822 281.19 148.866C281.588 149.903 281.787 151.163 281.787 152.648V153.777H268.779V151.391H278.665C278.665 150.553 278.495 149.81 278.154 149.164C277.813 148.511 277.334 147.996 276.716 147.619C276.105 147.243 275.388 147.055 274.564 147.055C273.669 147.055 272.888 147.275 272.22 147.715C271.559 148.148 271.048 148.717 270.686 149.42C270.331 150.116 270.153 150.872 270.153 151.689V153.553C270.153 154.647 270.345 155.577 270.729 156.344C271.119 157.112 271.662 157.697 272.358 158.102C273.055 158.5 273.868 158.699 274.798 158.699C275.402 158.699 275.952 158.614 276.449 158.443C276.947 158.266 277.376 158.003 277.738 157.655C278.101 157.307 278.378 156.877 278.569 156.366L281.584 156.909C281.343 157.797 280.91 158.575 280.285 159.242C279.667 159.903 278.889 160.418 277.952 160.787C277.021 161.149 275.959 161.33 274.766 161.33Z" fill="white"/>
</svg>
